<svg viewBox="0 0 13.5246719 16" version="1.1" xmlns="http://www.w3.org/2000/svg"
    xmlns:xlink="http://www.w3.org/1999/xlink">
    <path
        d="M6.78028125,0 C9.35203125,1.20628125 11.4103281,1.8766875 12.9596563,2.01120313 C13.2802812,2.03810938 13.5246719,2.30717188 13.5246719,2.62779688 L13.5246719,8.60985937 C12.9798437,12.213 10.7264687,14.677125 6.76234375,16 C2.74665625,14.6726562 0.49328125,12.2085156 0,8.60985937 L0,2.63901562 C0,2.31390625 0.253375,2.04260937 0.578484375,2.02242188 C2.17939062,1.91479687 4.24665625,1.23992188 6.78028125,0 Z M6.80270312,3.21748438 C5.3430625,3.21748438 4.1636875,4.4103125 4.1636875,5.8766875 C4.1636875,7.15246875 5.0560625,8.22196875 6.24889062,8.47757813 L6.26682812,12.248875 L6.26682812,12.2623281 C6.27579687,12.5515625 6.51346875,12.78475 6.80495312,12.7825315 C7.10090625,12.7802656 7.3408125,12.5403594 7.33857812,12.2443906 L7.33632812,11.5672656 L8.28925,11.5650156 L8.30270312,11.5650156 C8.5919375,11.5582969 8.825125,11.3206406 8.825125,11.0269063 C8.825125,10.7309375 8.58296875,10.4910313 8.287,10.4932813 L7.33184375,10.4955156 L7.32960937,9.99776563 L8.28925,9.99551563 L8.30270312,9.99551563 C8.5919375,9.98879688 8.825125,9.751125 8.825125,9.45739063 C8.825125,9.1614375 8.58296875,8.92153125 8.287,8.92376563 L7.325125,8.92601563 L7.322875,8.48429688 C8.53365625,8.24215625 9.44396875,7.16592188 9.44396875,5.87445313 C9.44171875,4.40807813 8.26234375,3.21748438 6.80270312,3.21748438 L6.80270312,3.21748438 Z M6.80270312,4.28923438 C7.6659375,4.28923438 8.36996875,5 8.36996875,5.8766875 C8.36996875,6.6973125 7.755625,7.37220313 6.968625,7.45515625 C6.90835691,7.43278525 6.84456722,7.42139688 6.78028125,7.42153125 C6.71975,7.42153125 6.66145312,7.43273438 6.607625,7.45067188 C5.83632812,7.35201563 5.2376875,6.68609375 5.2376875,5.8744375 C5.2376875,4.99776563 5.93946875,4.28923438 6.80270312,4.28923438 L6.80270312,4.28923438 Z"
    ></path>

</svg>