<svg width="11.25" height="15" viewBox="0 0 11.25 15" xmlns="http://www.w3.org/2000/svg"><path d="M10.313 11.25c.474 0 .874.356.93.828l.007.11v.937c0 1.036-.84 1.875-1.875 1.875h-7.5A1.875 1.875 0 0 1 0 13.125v-.938l.006-.11a.937.937 0 0 1 1.863 0l.006.11c0 .476.356.876.828.932l.11.006h5.624a.939.939 0 0 0 .932-.828l.006-.11c0-.517.42-.937.938-.937zM7.274 5.625c1.012 0 2.1.744 2.1 2.175 0 2.071-3.225 4.388-3.75 4.388-.525 0-3.75-2.317-3.75-4.388 0-1.337 1.047-2.175 2.1-2.175.712 0 1.125.375 1.65.787.525-.412.975-.787 1.65-.787zm2.1-3.75c1.036 0 1.875.84 1.875 1.875v.938a.937.937 0 1 1-1.875 0 .938.938 0 0 0-.938-.938H2.814a.937.937 0 0 0-.932.827l-.006.11a.938.938 0 0 1-1.875 0V3.75c0-1.036.84-1.875 1.875-1.875h7.5zM6.562 0C7.08 0 7.5.42 7.5.938v.468H3.75V.938C3.75.42 4.17 0 4.688 0h1.875z"/></svg>